<?xml version="1.0" encoding="UTF-8"?>
<svg id="_レイヤー_2" data-name="レイヤー 2" xmlns="http://www.w3.org/2000/svg" viewBox="0 0 216.78 285.89">
  <defs>
    <style>
      .cls-1, .cls-2 {
        fill: none;
      }

      .cls-1, .cls-2, .cls-3 {
        stroke: #231815;
        stroke-miterlimit: 10;
      }

      .cls-1, .cls-3 {
        stroke-width: 3px;
      }

      .cls-2 {
        stroke-width: 5px;
      }

      .cls-3 {
        fill: #fff;
      }
    </style>
  </defs>
  <g id="_レイヤー_2-2" data-name="レイヤー 2">
    <ellipse class="cls-1" cx="174" cy="43.5" rx="41.16" ry="42"/>
    <path class="cls-1" d="m174,85.5c6.28,8.76,10.78,17.32,14.04,25.22,24.71,59.92,3.18,94.76-5.77,111.96"/>
    <path class="cls-1" d="m181.9,222.68c-1.44,5.47-2.67,13.5-.79,22.64,5.46,26.64,32.14,37.97,35.11,39.18"/>
    <path class="cls-1" d="m121.35,109.05c4.66.75,21.59,2.91,37.45-7.6,7.9-5.24,12.61-11.68,15.19-15.95"/>
    <path class="cls-1" d="m150.17,284.96c-12.34-20.14-9.6-43.7,3.53-55.13,10.84-9.44,25.39-7.66,28.76-7.16"/>
    <rect class="cls-3" x="1.5" y="88.41" width="131.33" height="70.17" transform="translate(134.33 246.99) rotate(180)"/>
    <path class="cls-1" d="m174,85.5c1.92.08,20.57-1.11,23.63,22.76,2.44,19.03-72.48,27.1-73.11,31.43"/>
    <line class="cls-2" x1="119.31" y1="127.3" x2="28.5" y2="127.3"/>
    <line class="cls-2" x1="70.79" y1="106.87" x2="29.92" y2="126.97"/>
    <line class="cls-2" x1="71.05" y1="147.59" x2="29.91" y2="127.62"/>
  </g>
</svg>