<?xml version="1.0" encoding="UTF-8"?>
<svg id="_レイヤー_2" data-name="レイヤー 2" xmlns="http://www.w3.org/2000/svg" viewBox="0 0 221.15 285.89">
  <defs>
    <style>
      .cls-1, .cls-2 {
        fill: none;
      }

      .cls-1, .cls-2, .cls-3 {
        stroke: #231815;
        stroke-miterlimit: 10;
      }

      .cls-1, .cls-3 {
        stroke-width: 3px;
      }

      .cls-2 {
        stroke-width: 5px;
      }

      .cls-3 {
        fill: #fff;
      }
    </style>
  </defs>
  <g id="_レイヤー_1-2" data-name="レイヤー 1">
    <circle class="cls-1" cx="43.64" cy="43.5" r="42"/>
    <path class="cls-1" d="m43.64,85.5c-6.41,8.76-11,17.32-14.32,25.22-25.22,59.92-3.25,94.76,5.89,111.96"/>
    <path class="cls-1" d="m35.57,222.68c1.47,5.47,2.72,13.5.81,22.64-5.57,26.64-32.79,37.97-35.83,39.18"/>
    <path class="cls-1" d="m97.35,109.05c-5.05.76-22.19,2.7-38.36-7.91-7.79-5.11-12.61-11.34-15.36-15.65"/>
    <path class="cls-1" d="m67.95,284.96c12.59-20.14,9.79-43.7-3.6-55.13-11.06-9.44-25.91-7.66-29.34-7.16"/>
    <rect class="cls-3" x="85.64" y="88.41" width="134.01" height="70.17"/>
    <path class="cls-1" d="m43.64,85.5c-1.96.08-20.99-1.11-24.11,22.76-2.49,19.03,73.96,27.1,74.6,31.43"/>
    <line class="cls-2" x1="99.44" y1="127.3" x2="192.1" y2="127.3"/>
    <line class="cls-2" x1="148.95" y1="106.87" x2="190.65" y2="126.97"/>
    <line class="cls-2" x1="148.68" y1="147.59" x2="190.66" y2="127.62"/>
  </g>
</svg>